<svg xmlns="http://www.w3.org/2000/svg" width="760" height="400" viewBox="0 0 760 400" font-family="Helvetica, Arial, sans-serif">
<rect x="0" y="0" width="760" height="400" fill="#ffffff"/>
<text x="46" y="26" font-size="15" font-weight="bold" fill="#222222">Mean human score by dimension (informative chapters 2-10)</text>
<rect x="46.0" y="35.0" width="11" height="11" fill="#4e79a7"/>
<text x="62.0" y="44.0" font-size="12" fill="#222222">A  chapter-only</text>
<rect x="196.0" y="35.0" width="11" height="11" fill="#f28e2b"/>
<text x="212.0" y="44.0" font-size="12" fill="#222222">B  rolling context</text>
<rect x="346.0" y="35.0" width="11" height="11" fill="#59a14f"/>
<text x="362.0" y="44.0" font-size="12" fill="#222222">C  Wenmai memory</text>
<line x1="46" y1="304.0" x2="744" y2="304.0" stroke="#e6e6e6" stroke-width="1"/>
<text x="38" y="308.0" font-size="11" fill="#666666" text-anchor="end">1</text>
<line x1="46" y1="241.5" x2="744" y2="241.5" stroke="#e6e6e6" stroke-width="1"/>
<text x="38" y="245.5" font-size="11" fill="#666666" text-anchor="end">2</text>
<line x1="46" y1="179.0" x2="744" y2="179.0" stroke="#e6e6e6" stroke-width="1"/>
<text x="38" y="183.0" font-size="11" fill="#666666" text-anchor="end">3</text>
<line x1="46" y1="116.5" x2="744" y2="116.5" stroke="#e6e6e6" stroke-width="1"/>
<text x="38" y="120.5" font-size="11" fill="#666666" text-anchor="end">4</text>
<line x1="46" y1="54.0" x2="744" y2="54.0" stroke="#e6e6e6" stroke-width="1"/>
<text x="38" y="58.0" font-size="11" fill="#666666" text-anchor="end">5</text>
<line x1="46" y1="54.0" x2="46" y2="304.0" stroke="#666666" stroke-width="1"/>
<line x1="46" y1="304.0" x2="744" y2="304.0" stroke="#666666" stroke-width="1"/>
<rect x="63.3" y="116.5" width="19.7" height="187.5" fill="#4e79a7"/>
<text x="73.2" y="113.5" font-size="9.5" fill="#666666" text-anchor="middle">4</text>
<rect x="85.0" y="109.6" width="19.7" height="194.4" fill="#f28e2b"/>
<text x="94.9" y="106.6" font-size="9.5" fill="#666666" text-anchor="middle">4.11</text>
<rect x="106.7" y="88.7" width="19.7" height="215.3" fill="#59a14f"/>
<text x="116.5" y="85.7" font-size="9.5" fill="#666666" text-anchor="middle">4.44</text>
<text x="95.9" y="320.0" font-size="11" fill="#222222" text-anchor="middle">Faithfulness</text>
<rect x="163.1" y="109.6" width="19.7" height="194.4" fill="#4e79a7"/>
<text x="172.9" y="106.6" font-size="9.5" fill="#666666" text-anchor="middle">4.11</text>
<rect x="184.7" y="95.7" width="19.7" height="208.3" fill="#f28e2b"/>
<text x="194.6" y="92.7" font-size="9.5" fill="#666666" text-anchor="middle">4.33</text>
<rect x="206.4" y="54.0" width="19.7" height="250.0" fill="#59a14f"/>
<text x="216.2" y="51.0" font-size="9.5" fill="#666666" text-anchor="middle">5</text>
<text x="195.6" y="320.0" font-size="11" fill="#222222" text-anchor="middle">Contextual</text>
<rect x="262.8" y="172.1" width="19.7" height="131.9" fill="#4e79a7"/>
<text x="272.6" y="169.1" font-size="9.5" fill="#666666" text-anchor="middle">3.11</text>
<rect x="284.4" y="137.3" width="19.7" height="166.7" fill="#f28e2b"/>
<text x="294.3" y="134.3" font-size="9.5" fill="#666666" text-anchor="middle">3.67</text>
<rect x="306.1" y="60.9" width="19.7" height="243.1" fill="#59a14f"/>
<text x="316.0" y="57.9" font-size="9.5" fill="#666666" text-anchor="middle">4.89</text>
<text x="295.3" y="320.0" font-size="11" fill="#222222" text-anchor="middle">Terminology</text>
<rect x="362.5" y="95.7" width="19.7" height="208.3" fill="#4e79a7"/>
<text x="372.3" y="92.7" font-size="9.5" fill="#666666" text-anchor="middle">4.33</text>
<rect x="384.2" y="81.8" width="19.7" height="222.2" fill="#f28e2b"/>
<text x="394.0" y="78.8" font-size="9.5" fill="#666666" text-anchor="middle">4.56</text>
<rect x="405.8" y="81.8" width="19.7" height="222.2" fill="#59a14f"/>
<text x="415.7" y="78.8" font-size="9.5" fill="#666666" text-anchor="middle">4.56</text>
<text x="395.0" y="320.0" font-size="11" fill="#222222" text-anchor="middle">Char. voice</text>
<rect x="462.2" y="109.6" width="19.7" height="194.4" fill="#4e79a7"/>
<text x="472.0" y="106.6" font-size="9.5" fill="#666666" text-anchor="middle">4.11</text>
<rect x="483.9" y="116.5" width="19.7" height="187.5" fill="#f28e2b"/>
<text x="493.7" y="113.5" font-size="9.5" fill="#666666" text-anchor="middle">4</text>
<rect x="505.6" y="88.7" width="19.7" height="215.3" fill="#59a14f"/>
<text x="515.4" y="85.7" font-size="9.5" fill="#666666" text-anchor="middle">4.44</text>
<text x="494.7" y="320.0" font-size="11" fill="#222222" text-anchor="middle">Prose</text>
<rect x="561.9" y="109.6" width="19.7" height="194.4" fill="#4e79a7"/>
<text x="571.8" y="106.6" font-size="9.5" fill="#666666" text-anchor="middle">4.11</text>
<rect x="583.6" y="95.7" width="19.7" height="208.3" fill="#f28e2b"/>
<text x="593.4" y="92.7" font-size="9.5" fill="#666666" text-anchor="middle">4.33</text>
<rect x="605.3" y="95.7" width="19.7" height="208.3" fill="#59a14f"/>
<text x="615.1" y="92.7" font-size="9.5" fill="#666666" text-anchor="middle">4.33</text>
<text x="594.4" y="320.0" font-size="11" fill="#222222" text-anchor="middle">Wordplay</text>
<rect x="661.6" y="88.7" width="19.7" height="215.3" fill="#4e79a7"/>
<text x="671.5" y="85.7" font-size="9.5" fill="#666666" text-anchor="middle">4.44</text>
<rect x="683.3" y="74.8" width="19.7" height="229.2" fill="#f28e2b"/>
<text x="693.1" y="71.8" font-size="9.5" fill="#666666" text-anchor="middle">4.67</text>
<rect x="705.0" y="81.8" width="19.7" height="222.2" fill="#59a14f"/>
<text x="714.8" y="78.8" font-size="9.5" fill="#666666" text-anchor="middle">4.56</text>
<text x="694.1" y="320.0" font-size="11" fill="#222222" text-anchor="middle">Hallucination</text>
<text x="46" y="392" font-size="10" fill="#666666">Score 1-5 (5 = best); means exclude null observations. The two annotation dimensions are omitted here (scored on fewer chapters, unequal Ns) and reported in the write-up.</text>
</svg>
